<svg xmlns="http://www.w3.org/2000/svg" width="1200" height="630" viewBox="0 0 1200 630" role="img" aria-labelledby="title description">
  <title id="title">AI Profit Advantage</title>
  <desc id="description">Practical AI education for real-world growth.</desc>
  <defs>
    <linearGradient id="background" x1="0" y1="0" x2="1" y2="1">
      <stop offset="0" stop-color="#07152d"/>
      <stop offset="1" stop-color="#153b78"/>
    </linearGradient>
    <linearGradient id="gold" x1="0" y1="0" x2="1" y2="1">
      <stop offset="0" stop-color="#ffe39a"/>
      <stop offset="1" stop-color="#d89a1b"/>
    </linearGradient>
  </defs>
  <rect width="1200" height="630" fill="url(#background)"/>
  <circle cx="1040" cy="92" r="250" fill="#63d5ff" opacity=".09"/>
  <circle cx="1110" cy="546" r="180" fill="#f3b63e" opacity=".08"/>
  <rect x="76" y="84" width="124" height="124" rx="28" fill="#10264b" stroke="#63d5ff" stroke-width="2"/>
  <path d="M103 182 137 105h23l35 77h-24l-8-19h-29l-8 19h-23Zm40-45h12l-6-16-6 16Z" fill="url(#gold)"/>
  <path d="M164 121h19v61h-19z" fill="#fff"/>
  <circle cx="174" cy="105" r="10" fill="url(#gold)"/>
  <text x="76" y="304" fill="#fff" font-family="DejaVu Sans, Arial, sans-serif" font-size="74" font-weight="700">AI Profit Advantage</text>
  <text x="76" y="372" fill="#63d5ff" font-family="DejaVu Sans, Arial, sans-serif" font-size="31" font-weight="700" letter-spacing="3">PRACTICAL AI EDUCATION</text>
  <text x="76" y="450" fill="#d9e6ff" font-family="DejaVu Sans, Arial, sans-serif" font-size="34">Learn AI. Build skills. Grow with confidence.</text>
  <rect x="76" y="505" width="396" height="5" rx="2.5" fill="#f3b63e"/>
</svg>
